STARTFONT 2.1
FONT -Monotype-Century Schoolbook-Bold-I-Normal--33-240-100-100-P-182-iso8859-9
SIZE 24 100 100
FONTBOUNDINGBOX 42 40 -6 -7

STARTPROPERTIES 24
FOUNDRY "Monotype"
FAMILY_NAME "Century Schoolbook"
WEIGHT_NAME "Bold"
SLANT "I"
SETWIDTH_NAME "Normal"
ADD_STYLE_NAME ""
PIXEL_SIZE 33
POINT_SIZE 240
RESOLUTION_X 100
RESOLUTION_Y 100
SPACING "P"
AVERAGE_WIDTH 182
CHARSET_REGISTRY "iso8859"
CHARSET_ENCODING "9"
FACE_NAME "Century Schoolbook Bold Italic ISO Latin5"
_DEC_DEVICE_FONTNAMES "PS=centuryschoolbook-bit-lat5"
COPYRIGHT "Copyright (c) 1993 Monotype Typography Ltd."
CAP_HEIGHT 28
X_HEIGHT 19
WEIGHT 10
QUAD_WIDTH 20
DEFAULT_CHAR 160
FONT_DESCENT 7
FONT_ASCENT 33
ENDPROPERTIES

CHARS 191

STARTCHAR space
ENCODING 32
SWIDTH 287 0
DWIDTH 9 0
BBX 0 0 0 0
BITMAP
ENDCHAR

STARTCHAR exclam
ENCODING 33
SWIDTH 333 0
DWIDTH 11 0
BBX 11 25 0 0
BITMAP
01C0
03E0
03E0
03E0
03E0
07C0
07C0
0780
0780
0700
0600
0600
0E00
0C00
0C00
0800
1800
0000
0000
3000
7800
FC00
FC00
7800
3000
ENDCHAR

STARTCHAR quotedbl
ENCODING 34
SWIDTH 400 0
DWIDTH 13 0
BBX 12 11 4 12
BITMAP
38E0
79F0
F9F0
F9E0
F1E0
F1C0
E1C0
E180
C180
C100
8100
ENDCHAR

STARTCHAR numbersign
ENCODING 35
SWIDTH 606 0
DWIDTH 20 0
BBX 18 24 2 0
BITMAP
038380
038300
038700
030700
070700
070600
FFFFC0
FFFFC0
F7FFC0
0E0E00
0E0C00
0E0C00
0C1C00
0C1C00
FFFFC0
FFFFC0
FFDFC0
183800
183800
383800
383000
383000
307000
707000
ENDCHAR

STARTCHAR dollar
ENCODING 36
SWIDTH 574 0
DWIDTH 19 0
BBX 16 28 3 -4
BITMAP
0018
00F8
03FE
0733
0637
0E6F
0E6F
0E6E
0F60
0FC0
07E0
07F0
03F0
01F8
01FC
01BC
733C
7B3C
FB1C
F61C
E638
4638
36F0
1FC0
0C00
0C00
0800
1800
ENDCHAR

STARTCHAR percent
ENCODING 37
SWIDTH 889 0
DWIDTH 29 0
BBX 22 24 5 0
BITMAP
0F0030
198020
39C060
71C0C0
71C180
73C100
F38300
E38600
E38400
E70C00
661800
3C3000
0020F0
006198
00C39C
00871C
01871C
03073C
020F3C
040E38
0C0E38
180670
100660
3003C0
ENDCHAR

STARTCHAR ampersand
ENCODING 38
SWIDTH 889 0
DWIDTH 29 0
BBX 26 24 2 0
BITMAP
000F8000
003FE000
0078F000
00F07000
00F07000
00F07000
01F0F000
01F1E000
01F7C000
00FE0000
01F80000
0FF8FFC0
1EF81F00
3C7C0E00
787C0C00
F87E1800
F83E3000
F83F7000
F81FE000
FC1F80C0
FC0FC180
7F0FE700
3FFDFE00
0FE1FC00
ENDCHAR

STARTCHAR quoteright
ENCODING 39
SWIDTH 259 0
DWIDTH 9 0
BBX 8 10 2 14
BITMAP
1E
3F
3F
3F
1F
06
0E
1C
78
E0
ENDCHAR

STARTCHAR parenleft
ENCODING 40
SWIDTH 407 0
DWIDTH 13 0
BBX 13 30 3 -6
BITMAP
0038
0070
00E0
03C0
0780
0F00
0F00
1E00
3E00
3C00
7C00
7C00
7800
F800
F800
F800
F000
F000
F000
F000
F000
F000
F000
7000
7800
3800
3800
1800
0C00
0C00
ENDCHAR

STARTCHAR parenright
ENCODING 41
SWIDTH 407 0
DWIDTH 13 0
BBX 13 30 -2 -6
BITMAP
0180
00C0
00C0
00E0
00F0
0070
0070
0078
0078
0078
0078
0078
0078
0078
00F8
00F8
00F8
00F8
01F0
01F0
01E0
03E0
03C0
0780
0F80
0F00
1E00
3800
7000
E000
ENDCHAR

STARTCHAR asterisk
ENCODING 42
SWIDTH 500 0
DWIDTH 17 0
BBX 16 15 2 9
BITMAP
03C0
03C0
03C0
03C0
718E
F99F
FC3F
7FFE
0180
0360
0E70
1E78
1E78
1E78
0810
ENDCHAR

STARTCHAR plus
ENCODING 43
SWIDTH 606 0
DWIDTH 20 0
BBX 18 18 3 2
BITMAP
01C000
01C000
01C000
01C000
01C000
01C000
01C000
01C000
FFFFC0
FFFFC0
FFFFC0
01C000
01C000
01C000
01C000
01C000
01C000
01C000
ENDCHAR

STARTCHAR comma
ENCODING 44
SWIDTH 287 0
DWIDTH 9 0
BBX 8 10 -2 -5
BITMAP
1E
3F
3F
3F
1F
07
06
0C
38
E0
ENDCHAR

STARTCHAR minus
ENCODING 45
SWIDTH 606 0
DWIDTH 20 0
BBX 18 3 3 9
BITMAP
FFFFC0
FFFFC0
FFFFC0
ENDCHAR

STARTCHAR period
ENCODING 46
SWIDTH 287 0
DWIDTH 9 0
BBX 5 6 1 0
BITMAP
70
F8
F8
F8
F8
70
ENDCHAR

STARTCHAR slash
ENCODING 47
SWIDTH 278 0
DWIDTH 9 0
BBX 17 24 -3 0
BITMAP
000380
000700
000700
000E00
001E00
001C00
003800
003800
007000
00E000
00E000
01C000
01C000
038000
070000
070000
0E0000
0E0000
1C0000
380000
380000
700000
700000
E00000
ENDCHAR

STARTCHAR zero
ENCODING 48
SWIDTH 574 0
DWIDTH 19 0
BBX 16 24 3 0
BITMAP
0070
01FC
078E
0F07
0F07
1E07
3E07
3E0F
7C0F
7C0F
780F
F81F
F81F
F81E
F03E
F03E
F03C
F07C
E078
E0F8
60F0
71E0
3F80
0E00
ENDCHAR

STARTCHAR one
ENCODING 49
SWIDTH 574 0
DWIDTH 19 0
BBX 13 23 3 0
BITMAP
0008
0038
07F8
0FF0
00F0
00F0
00F0
01E0
01E0
01E0
03E0
03C0
03C0
03C0
07C0
0780
0780
0780
0F00
0F00
0F00
1F00
FFE0
ENDCHAR

STARTCHAR two
ENCODING 50
SWIDTH 574 0
DWIDTH 19 0
BBX 18 23 1 0
BITMAP
00FC00
03FF00
070F80
0E07C0
0C07C0
0F07C0
0F87C0
0F87C0
078F80
030F00
001E00
003C00
007800
00E000
01C000
070000
0E0200
180600
300E00
7FFC00
7FFC00
FFF800
FFF800
ENDCHAR

STARTCHAR three
ENCODING 51
SWIDTH 574 0
DWIDTH 19 0
BBX 17 24 2 0
BITMAP
007800
01FE00
030F00
070780
078780
078780
078780
010F80
000F00
001F00
003C00
07F000
07E000
003800
003C00
203E00
783E00
F83E00
F83E00
F07C00
E07C00
61F800
3FF000
0F8000
ENDCHAR

STARTCHAR four
ENCODING 52
SWIDTH 574 0
DWIDTH 19 0
BBX 17 23 2 0
BITMAP
000180
000380
000700
000F00
001F00
003E00
007E00
00DE00
019E00
033C00
063C00
0C3C00
187C00
307800
607800
E0F800
FFFE00
00F000
00F000
01F000
01E000
03F000
0FFC00
ENDCHAR

STARTCHAR five
ENCODING 53
SWIDTH 574 0
DWIDTH 19 0
BBX 17 23 3 0
BITMAP
010180
03FF00
03FF00
07FC00
06F000
040000
0C0000
0C0000
0BC000
1FF000
187800
303C00
003C00
003C00
003C00
707C00
F87C00
F87800
F8F800
E0F000
C1E000
7FC000
1E0000
ENDCHAR

STARTCHAR six
ENCODING 54
SWIDTH 574 0
DWIDTH 19 0
BBX 17 24 3 0
BITMAP
003C00
00FF00
01C780
038F80
070F80
0F0F00
1E0000
1E0000
3E0000
3DE000
7FF800
7E7800
7C3C00
F83C00
F83C00
F87C00
F07C00
F07C00
F07800
70F800
70F000
31E000
3FC000
0F0000
ENDCHAR

STARTCHAR seven
ENCODING 55
SWIDTH 574 0
DWIDTH 19 0
BBX 16 23 5 0
BITMAP
3FFF
3FFE
3FFE
7FEC
7018
6030
C070
0060
00C0
01C0
0380
0380
0700
0F00
0E00
1E00
3E00
3E00
7E00
7C00
7C00
7C00
3800
ENDCHAR

STARTCHAR eight
ENCODING 56
SWIDTH 574 0
DWIDTH 19 0
BBX 17 24 2 0
BITMAP
007800
01FE00
030700
060380
0E0380
0E0380
0F0380
0F0300
0F8700
07DE00
07F800
03F000
0FF800
1CFC00
387C00
703E00
E01E00
E01E00
E01E00
E01C00
603C00
707800
3FE000
0F8000
ENDCHAR

STARTCHAR nine
ENCODING 57
SWIDTH 574 0
DWIDTH 19 0
BBX 17 24 2 0
BITMAP
007800
01FE00
03C700
078700
0F8780
0F0780
1F0780
1F0780
1E0F80
1E0F80
1E0F80
1E1F00
0F3F00
07FF00
03DF00
003E00
003E00
003C00
787800
F87800
F8F000
F1C000
7F8000
1C0000
ENDCHAR

STARTCHAR colon
ENCODING 58
SWIDTH 287 0
DWIDTH 9 0
BBX 9 16 0 0
BITMAP
0600
0F00
1F80
1F80
0F00
0600
0000
0000
0000
0000
3000
7800
FC00
FC00
7800
3000
ENDCHAR

STARTCHAR semicolon
ENCODING 59
SWIDTH 287 0
DWIDTH 9 0
BBX 11 21 -2 -5
BITMAP
0180
03C0
07E0
07E0
03C0
0180
0000
0000
0000
0000
0000
1E00
3F00
3F00
3F00
1F00
0600
0E00
1C00
7800
E000
ENDCHAR

STARTCHAR less
ENCODING 60
SWIDTH 606 0
DWIDTH 20 0
BBX 18 18 3 2
BITMAP
000040
0003C0
000FC0
007F80
01FE00
07F000
3FC000
FE0000
F00000
F80000
FE0000
3FC000
07F000
01FE00
007F80
000FC0
0003C0
000040
ENDCHAR

STARTCHAR equal
ENCODING 61
SWIDTH 606 0
DWIDTH 20 0
BBX 18 11 3 6
BITMAP
FFFFC0
FFFFC0
FFFFC0
000000
000000
000000
000000
000000
FFFFC0
FFFFC0
FFFFC0
ENDCHAR

STARTCHAR greater
ENCODING 62
SWIDTH 606 0
DWIDTH 20 0
BBX 18 18 3 2
BITMAP
800000
E00000
F80000
FF0000
3FC000
07F000
01FE00
003F80
0007C0
000FC0
003F80
01FE00
07F800
3FC000
FF0000
F80000
E00000
800000
ENDCHAR

STARTCHAR question
ENCODING 63
SWIDTH 481 0
DWIDTH 16 0
BBX 14 24 2 0
BITMAP
01E0
07F8
0C3C
181C
101C
103C
007C
01FC
03F8
0FE0
1F80
1E00
3C00
3840
38C0
1F80
0600
0000
3000
7800
FC00
FC00
7800
3000
ENDCHAR

STARTCHAR at
ENCODING 64
SWIDTH 747 0
DWIDTH 25 0
BBX 24 25 2 -2
BITMAP
007F00
01C0E0
060010
0C0008
180004
300004
603DC2
6075C2
40E382
C1C782
C1C782
83C782
838702
838F04
878F04
C79608
C7EE10
43CE61
438782
200002
300004
180008
0C0030
0381C0
007E00
ENDCHAR

STARTCHAR A
ENCODING 65
SWIDTH 741 0
DWIDTH 24 0
BBX 25 24 -1 0
BITMAP
00006000
0000E000
0001E000
0001F000
0003F000
0007F000
0006F000
000DF000
000DF000
0019F000
0030F800
0030F800
0060F800
00C0F800
00C0F800
01FFF800
01FFF800
03007C00
06007C00
06007C00
0C007C00
1C007C00
7E00FE00
FF83FF80
ENDCHAR

STARTCHAR B
ENCODING 66
SWIDTH 759 0
DWIDTH 25 0
BBX 26 24 -1 0
BITMAP
07FFFC00
07FFFF00
007C0F80
007C07C0
00FC07C0
00F807C0
00F807C0
00F80FC0
01F00F80
01F01F00
01F06C00
01FFF000
03E07E00
03E01F00
03E00F00
07E00F80
07C00F80
07C00F80
07C00F80
0FC01F80
0F801F00
0F803E00
1F81FC00
FFFFF000
ENDCHAR

STARTCHAR C
ENCODING 67
SWIDTH 759 0
DWIDTH 25 0
BBX 23 24 3 0
BITMAP
003F00
01FFC6
03E07E
07C03C
0F801C
1F001C
3F001C
3E000C
7E0008
7C0008
FC0000
FC0000
F80000
F80000
F80000
F80000
F80010
F80030
7C0020
7C0060
3E00C0
1F0380
0FFF00
03F800
ENDCHAR

STARTCHAR D
ENCODING 68
SWIDTH 833 0
DWIDTH 27 0
BBX 27 24 0 0
BITMAP
07FFF000
07FFFE00
00FC1F00
00F80F80
00F807C0
00F803C0
01F803E0
01F003E0
01F003E0
01F003E0
03E003E0
03E003E0
03E007E0
03E007E0
07C007C0
07C00FC0
07C00FC0
0FC00F80
0F801F80
0F803F00
0F807E00
1F00FC00
1F83F000
FFFFC000
ENDCHAR

STARTCHAR E
ENCODING 69
SWIDTH 741 0
DWIDTH 24 0
BBX 25 24 0 0
BITMAP
07FFFF80
00FC0F80
00F80780
00F80380
00F80300
00F80300
01F00300
01F06300
01F06000
03E0C000
03E3C000
03FFC000
03E3C000
07C18000
07C18000
07C18000
07C18600
0F810600
0F800C00
0F800C00
1F801C00
1F007800
3F81F800
FFFFF800
ENDCHAR

STARTCHAR F
ENCODING 70
SWIDTH 704 0
DWIDTH 23 0
BBX 25 24 0 0
BITMAP
07FFFF80
00FC0F80
00FC0780
00F80380
00F80380
00F80100
01F03100
01F03100
01F06000
01F06000
03E1E000
03FFC000
03E3C000
03E1C000
07C0C000
07C08000
07C08000
0FC18000
0F800000
0F800000
0F800000
1F800000
1F800000
FFF80000
ENDCHAR

STARTCHAR G
ENCODING 71
SWIDTH 815 0
DWIDTH 27 0
BBX 24 24 3 0
BITMAP
001F80
00FFE2
01F03A
07C01E
0F800E
1F800E
3F000C
3E000C
7E000C
7E0000
FC0000
FC0000
FC0000
FC03FF
F800FC
F800F8
F800F8
F800F8
FC01F0
7C01F0
3E03B0
1F0770
0FFC60
01E020
ENDCHAR

STARTCHAR H
ENCODING 72
SWIDTH 870 0
DWIDTH 29 0
BBX 31 24 0 0
BITMAP
07FF9FFE
00FC03F8
00F801F0
00F803E0
00F803E0
00F803E0
01F003E0
01F007C0
01F007C0
03F007C0
03E007C0
03FFFF80
03FFFF80
07E00F80
07C00F80
07C01F00
07C01F00
0F801F00
0F803F00
0F803E00
1F803E00
1F003E00
3F807E00
FFF3FFC0
ENDCHAR

STARTCHAR I
ENCODING 73
SWIDTH 444 0
DWIDTH 15 0
BBX 17 24 0 0
BITMAP
07FF80
00FC00
00F800
00F800
00F800
00F800
01F000
01F000
01F000
01F000
03E000
03E000
03E000
07E000
07C000
07C000
07C000
0FC000
0F8000
0F8000
0F8000
1F0000
1F8000
FFF000
ENDCHAR

STARTCHAR J
ENCODING 74
SWIDTH 667 0
DWIDTH 22 0
BBX 24 24 1 0
BITMAP
000FFF
0001FC
0000F8
0001F0
0001F0
0001F0
0003F0
0003E0
0003E0
0003E0
0007E0
0007C0
0007C0
0007C0
3E0F80
7F0F80
7F0F80
FF0F80
DE1F00
C01F00
403E00
707C00
3FF800
0FC000
ENDCHAR

STARTCHAR K
ENCODING 75
SWIDTH 778 0
DWIDTH 26 0
BBX 29 24 -1 0
BITMAP
03FF8FF8
00FE07E0
007C0380
007C0700
00F80E00
00F81C00
00F83000
01F86000
01F0C000
01F18000
01F3C000
03FFC000
03EDE000
03FBE000
03F1F000
07C1F000
07C0F800
07C0F800
07C07C00
0F807C00
0F807E00
0F803E00
1F807F00
FFF1FFC0
ENDCHAR

STARTCHAR L
ENCODING 76
SWIDTH 704 0
DWIDTH 23 0
BBX 22 24 0 0
BITMAP
07FFC0
00FC00
007C00
00F800
00F800
00F800
00F800
01F000
01F000
01F000
01F000
03E000
03E000
03E000
07E000
07C000
07C004
07C00C
0F800C
0F8018
0F8038
0F8078
1F81F8
FFFFF0
ENDCHAR

STARTCHAR M
ENCODING 77
SWIDTH 944 0
DWIDTH 31 0
BBX 35 24 -1 0
BITMAP
07FE001FE0
007E003F00
007E007E00
007E007E00
00DE00DE00
00DE00DE00
00DE01BC00
009E037C00
019E037C00
019E067C00
019F0E7800
031F0CF800
031F18F800
031F18F800
031F30F000
061F61F000
061F61F000
060FC1F000
040FC1E000
0C0F83E000
0C0F03E000
1E0F03E000
7F0E07E000
FF8E3FFC00
ENDCHAR

STARTCHAR N
ENCODING 78
SWIDTH 852 0
DWIDTH 28 0
BBX 30 24 0 0
BITMAP
03FC07FC
00FC01F0
007E00E0
007E00C0
007F00C0
00DF00C0
00DF80C0
00CF8180
00CF8180
0187C180
0187C100
0183E300
0103E300
0301F300
0301F200
0301FE00
0600FE00
0600FE00
06007C00
06007C00
0E003C00
1F003C00
7FC01800
FFC01800
ENDCHAR

STARTCHAR O
ENCODING 79
SWIDTH 833 0
DWIDTH 27 0
BBX 25 24 2 0
BITMAP
000FC000
007FF800
01F03C00
07C01E00
0F801F00
1F800F00
1F000F80
3F000F80
7E000F80
7E000F80
7C001F80
FC001F80
FC001F80
FC001F80
F8003F00
F8003F00
F8003E00
F8007E00
7800FC00
7C00F800
3C01F000
1E07C000
0FFF0000
01F80000
ENDCHAR

STARTCHAR P
ENCODING 80
SWIDTH 741 0
DWIDTH 24 0
BBX 26 24 -1 0
BITMAP
07FFF800
07FFFF00
007C0F80
007C07C0
00F807C0
00F807C0
00F807C0
00F807C0
01F00FC0
01F00F80
01F01F80
03E03F00
03FFFC00
03EFC000
03E00000
07C00000
07C00000
07C00000
07C00000
0F800000
0F800000
0F800000
1F800000
FFF00000
ENDCHAR

STARTCHAR Q
ENCODING 81
SWIDTH 833 0
DWIDTH 27 0
BBX 25 30 2 -6
BITMAP
000FC000
007FF800
01F03C00
07C01E00
0F801F00
1F800F00
1F000F80
3E000F80
7E000F80
7E000F80
7C001F80
FC001F80
FC001F80
FC001F80
F8003F00
F8783F00
F9FC3E00
FB0E7E00
7A077C00
7E07F800
3E07F000
1F07C000
0FFF8000
01FF8000
000F8000
000F8000
000F8C00
0007C800
0007F000
0003E000
ENDCHAR

STARTCHAR R
ENCODING 82
SWIDTH 796 0
DWIDTH 26 0
BBX 26 24 -1 0
BITMAP
07FFF800
07FFFF00
007C0F80
007C07C0
00F807C0
00F807C0
00F807C0
01F00FC0
01F00F80
01F01F00
01F07E00
03FFF000
03E1E000
03E0F000
03E07000
07C07800
07C07800
07C0F800
0FC0F800
0F80F880
0F80F880
0F80F980
1F807F00
FFF03E00
ENDCHAR

STARTCHAR S
ENCODING 83
SWIDTH 685 0
DWIDTH 23 0
BBX 22 24 1 0
BITMAP
003E00
01FF8C
03C0EC
078078
070038
0F0038
0F0038
0F8018
0FE010
0FF800
07FF00
03FFC0
01FFE0
007FE0
000FF0
3003F0
3000F0
3000F0
7000F0
7800E0
7C01E0
6E03C0
C7FF00
00F800
ENDCHAR

STARTCHAR T
ENCODING 84
SWIDTH 722 0
DWIDTH 24 0
BBX 23 24 3 0
BITMAP
1FFFFE
1FFFFE
3C3E1E
383E0E
307E0C
607C0C
607C0C
C07C0C
C0F808
00F800
00F800
00F800
01F000
01F000
01F000
01F000
03E000
03E000
03E000
07E000
07C000
07C000
0FC000
FFFC00
ENDCHAR

STARTCHAR U
ENCODING 85
SWIDTH 833 0
DWIDTH 27 0
BBX 26 24 4 0
BITMAP
FFF87FC0
1FC01F00
0F800E00
1F800C00
1F000C00
1F000800
1F001800
3E001800
3E001800
3E001000
3E003000
7C003000
7C003000
7C002000
FC006000
F8006000
F8006000
F8004000
F800C000
F8018000
7C038000
3E070000
1FFC0000
07F00000
ENDCHAR

STARTCHAR V
ENCODING 86
SWIDTH 741 0
DWIDTH 24 0
BBX 25 24 3 0
BITMAP
FFE07F80
3F803F00
1F001C00
1F001800
1F001800
0F003000
0F806000
0F806000
0F80C000
0F818000
0F818000
0F830000
07860000
07C60000
07CC0000
07CC0000
07D80000
07F00000
07F00000
07E00000
03C00000
03C00000
03800000
03000000
ENDCHAR

STARTCHAR W
ENCODING 87
SWIDTH 944 0
DWIDTH 31 0
BBX 33 24 3 0
BITMAP
FF8FFE7F80
3E03F01E00
3E01E01C00
3E01E01800
1E03F01800
1E03F03000
1E06F03000
1E06F06000
1E0DF0E000
1F0CF0C000
1F18F18000
1F18F18000
1F30F30000
1F60F30000
0F60FE0000
0FC0FE0000
0FC0FC0000
0F80FC0000
0F80F80000
0F00F80000
0F00700000
0E00700000
0E00600000
0C00600000
ENDCHAR

STARTCHAR X
ENCODING 88
SWIDTH 741 0
DWIDTH 24 0
BBX 27 24 0 0
BITMAP
0FFF3FE0
01F80F80
00F80F00
00F80E00
007C1C00
007C3800
007E7000
003EE000
003EC000
001F8000
001F0000
000F0000
000F8000
001F8000
0037C000
0067C000
00C3E000
01C3E000
0383E000
0701F000
0E01F000
1E00F800
7F01FC00
FFCFFE00
ENDCHAR

STARTCHAR Y
ENCODING 89
SWIDTH 704 0
DWIDTH 23 0
BBX 23 24 4 0
BITMAP
FFE3FE
3F00F8
1F0070
1F0060
1F00C0
0F8180
0F8380
078300
07C600
07CE00
03EC00
03F800
01F000
01F000
01F000
03E000
03E000
03E000
03E000
07C000
07C000
07C000
0FC000
7FF800
ENDCHAR

STARTCHAR Z
ENCODING 90
SWIDTH 704 0
DWIDTH 23 0
BBX 25 24 0 0
BITMAP
01FFFF80
01F83F00
01E03E00
03807E00
0380FC00
0301F800
0603F000
0607E000
0007E000
000FC000
001F8000
003F0000
007E0000
007E0000
00FC0000
01F80000
03F00C00
07E00800
0FE01800
0FC03800
1F807800
3F00F000
7E03F000
FFFFF000
ENDCHAR

STARTCHAR bracketleft
ENCODING 91
SWIDTH 407 0
DWIDTH 13 0
BBX 16 29 0 -5
BITMAP
00FF
00F0
00F0
01E0
01E0
01E0
03E0
03C0
03C0
03C0
07C0
0780
0780
0780
0F80
0F00
0F00
1F00
1E00
1E00
1E00
3E00
3C00
3C00
3C00
7C00
7800
7C00
FF00
ENDCHAR

STARTCHAR backslash
ENCODING 92
SWIDTH 606 0
DWIDTH 20 0
BBX 16 24 3 0
BITMAP
E000
7000
7000
3800
3800
1C00
1C00
0E00
0E00
0700
0700
0380
0380
01C0
00E0
00E0
0070
0070
0038
0038
001C
001C
000E
000F
ENDCHAR

STARTCHAR bracketright
ENCODING 93
SWIDTH 407 0
DWIDTH 13 0
BBX 15 29 -2 -5
BITMAP
01FE
003E
003C
003C
003C
007C
0078
0078
0078
00F8
00F0
00F0
00F0
01F0
01E0
01E0
01E0
03C0
03C0
03C0
07C0
0780
0780
0780
0F80
0F00
0F00
1F00
FE00
ENDCHAR

STARTCHAR asciicircum
ENCODING 94
SWIDTH 606 0
DWIDTH 20 0
BBX 15 12 4 12
BITMAP
0100
0380
0380
07C0
07E0
0EE0
1EF0
1C70
3878
3838
701C
F01E
ENDCHAR

STARTCHAR underscore
ENCODING 95
SWIDTH 500 0
DWIDTH 17 0
BBX 17 2 0 -4
BITMAP
FFFF80
FFFF80
ENDCHAR

STARTCHAR quoteleft
ENCODING 96
SWIDTH 259 0
DWIDTH 9 0
BBX 8 10 4 14
BITMAP
07
1C
30
60
E0
F8
FC
FC
FC
78
ENDCHAR

STARTCHAR a
ENCODING 97
SWIDTH 667 0
DWIDTH 22 0
BBX 19 16 2 0
BITMAP
03E3C0
07F780
1F1B80
1E0F80
3C0F00
7C0F00
7C0F00
781F00
F81E00
F81E00
F81E60
F83C40
787CC0
7CDD80
3FBF00
1F1C00
ENDCHAR

STARTCHAR b
ENCODING 98
SWIDTH 611 0
DWIDTH 20 0
BBX 16 24 2 0
BITMAP
3F80
1F80
0F00
0F00
0F00
1F00
1E00
1E00
1EFC
3DFE
3F3E
3E1F
7C1F
7C1F
781F
781F
F01E
F01E
F03E
F03C
F078
70F0
79E0
1F80
ENDCHAR

STARTCHAR c
ENCODING 99
SWIDTH 537 0
DWIDTH 18 0
BBX 15 16 2 0
BITMAP
03F8
0F8C
1E0E
3E3E
3C3E
7C1C
7800
F800
F800
F800
F800
F804
780C
7C38
3FE0
0F80
ENDCHAR

STARTCHAR d
ENCODING 100
SWIDTH 667 0
DWIDTH 22 0
BBX 21 24 1 0
BITMAP
0007F8
0007F0
0000F0
0000F0
0001E0
0001E0
0001E0
0003E0
03E3C0
0FFBC0
1F8FC0
3F0F80
3E0F80
7C0F80
7C0F80
780F00
F80F00
F81F00
F81E30
F83E20
F83E60
7CEEC0
3FDF80
1F0F00
ENDCHAR

STARTCHAR e
ENCODING 101
SWIDTH 519 0
DWIDTH 17 0
BBX 15 16 1 0
BITMAP
00F8
03FC
0F1E
1E1E
3C1E
7C3E
7C7C
78F8
FFC0
FE00
F800
F804
780C
7C38
3FF0
0F80
ENDCHAR

STARTCHAR f
ENCODING 102
SWIDTH 389 0
DWIDTH 13 0
BBX 18 30 -1 -6
BITMAP
000780
001FC0
003BC0
0073C0
00F000
00E000
01E000
01E000
0FFC00
1FFC00
03C000
03C000
07C000
078000
078000
078000
0F8000
0F0000
0F0000
0F0000
1F0000
1E0000
1E0000
3E0000
3E0000
3C0000
7C0000
7C0000
F80000
800000
ENDCHAR

STARTCHAR g
ENCODING 103
SWIDTH 611 0
DWIDTH 20 0
BBX 22 23 -1 -6
BITMAP
000078
007FFC
01E3D8
03C1C0
07C1E0
0781E0
0781E0
0783E0
0783C0
03C780
0FFF00
180000
380000
3FF800
3FFF00
1FFF80
07FFC0
3C07C0
F003C0
F00380
F00780
7C1F00
3FF800
ENDCHAR

STARTCHAR h
ENCODING 104
SWIDTH 685 0
DWIDTH 23 0
BBX 20 24 1 0
BITMAP
0FF000
07E000
03E000
03C000
03C000
03C000
07C000
078000
078F80
0FBFC0
0F73C0
0F43C0
0F83C0
1F83C0
1F0780
1E0780
3E0780
3C0F00
3C0F10
3C0F30
781E20
781E60
781FC0
F80F00
ENDCHAR

STARTCHAR i
ENCODING 105
SWIDTH 389 0
DWIDTH 13 0
BBX 9 24 2 0
BITMAP
0700
0F80
0F80
0F80
0700
0000
0000
0000
3F00
FE00
3E00
1E00
3E00
3C00
3C00
7C00
7800
7800
7880
F180
F300
F600
FC00
7800
ENDCHAR

STARTCHAR j
ENCODING 106
SWIDTH 370 0
DWIDTH 12 0
BBX 15 30 -4 -6
BITMAP
001C
003E
003E
003E
001C
0000
0000
0000
003C
01FC
003C
007C
0078
0078
0078
00F8
00F0
00F0
00F0
01F0
01F0
01E0
01E0
01E0
03C0
03C0
E380
E780
FF00
FC00
ENDCHAR

STARTCHAR k
ENCODING 107
SWIDTH 648 0
DWIDTH 21 0
BBX 19 24 1 0
BITMAP
0FF000
07E000
01E000
03E000
03C000
03C000
07C000
078000
078FC0
079FE0
0FB1E0
0F61E0
0FC1E0
1F83C0
1F0780
1EFC00
3E7800
3E1C00
3C1C20
3C1C60
7C3EC0
781F80
781F00
F80E00
ENDCHAR

STARTCHAR l
ENCODING 108
SWIDTH 389 0
DWIDTH 13 0
BBX 10 24 3 0
BITMAP
3FC0
1FC0
0780
0780
0780
0F80
0F00
0F00
1F00
1E00
1E00
1E00
3E00
3C00
3C00
7C00
7800
7800
7880
F980
F300
F200
FE00
F800
ENDCHAR

STARTCHAR m
ENCODING 109
SWIDTH 944 0
DWIDTH 31 0
BBX 29 16 1 0
BITMAP
7F1F07C0
7F3F9FE0
0F67B1E0
1E87E1E0
1F87C1E0
1F07C3E0
1E0F83C0
3E0F83C0
3C0F07C0
3C0F0780
7C1E0788
781E0F98
781E0F30
783E0FE0
F83C0FC0
F03C0780
ENDCHAR

STARTCHAR n
ENCODING 110
SWIDTH 685 0
DWIDTH 23 0
BBX 20 16 1 0
BITMAP
3F8F80
7FBFC0
0F73C0
0F43C0
0F83C0
1F87C0
1F07C0
1E0780
1E0F80
3E0F80
3C1F30
3C1F20
7C1F60
781EC0
781F80
F80F00
ENDCHAR

STARTCHAR o
ENCODING 111
SWIDTH 574 0
DWIDTH 19 0
BBX 16 16 1 0
BITMAP
03F0
0F1C
1E0E
3C0F
7C0F
780F
F80F
F81F
F81F
F01F
F01E
F03E
703C
7878
3CF0
0FC0
ENDCHAR

STARTCHAR p
ENCODING 112
SWIDTH 648 0
DWIDTH 21 0
BBX 23 22 -3 -6
BITMAP
03F9F0
03FBFC
00F67C
00FC3E
00F83E
00F03E
01F03E
01E03E
01E03C
01E07C
03E07C
03E0F8
03E1F8
07F3F0
07BFE0
078F80
078000
0F8000
0F0000
0F0000
1F8000
FFE000
ENDCHAR

STARTCHAR q
ENCODING 113
SWIDTH 630 0
DWIDTH 21 0
BBX 19 22 1 -6
BITMAP
01F8E0
079CC0
0F0FC0
1E0780
3E0780
7C0780
7C0F80
780F00
F80F00
F81F00
F81E00
F83E00
F83E00
7CFE00
7FBC00
1F3C00
007C00
007800
007800
007800
00FC00
07FF00
ENDCHAR

STARTCHAR r
ENCODING 114
SWIDTH 519 0
DWIDTH 17 0
BBX 16 16 1 0
BITMAP
7F3E
7E7F
1ECF
1E8F
1F8E
1D00
1F00
1E00
3E00
3E00
3C00
7C00
7C00
7800
7800
F800
ENDCHAR

STARTCHAR s
ENCODING 115
SWIDTH 481 0
DWIDTH 16 0
BBX 15 16 0 0
BITMAP
03F8
0F0C
1E1E
3C1E
3C1E
3F00
3FE0
1FF8
0FFC
03FC
F07C
F03C
F03C
E078
70F0
3FC0
ENDCHAR

STARTCHAR t
ENCODING 116
SWIDTH 407 0
DWIDTH 13 0
BBX 11 21 2 0
BITMAP
0780
0F80
0F00
0F00
1F00
FFE0
FFE0
1E00
3E00
3C00
3C00
7C00
7800
7800
7800
F8C0
F180
F180
F300
FE00
7800
ENDCHAR

STARTCHAR u
ENCODING 117
SWIDTH 685 0
DWIDTH 23 0
BBX 19 16 2 0
BITMAP
FF03C0
FE07C0
1E0780
3E0780
3C0F80
3C0F00
7C0F00
781F00
781E00
F83E00
F03E20
F07C40
F0DCC0
FBBD80
FF3F00
7C1E00
ENDCHAR

STARTCHAR v
ENCODING 118
SWIDTH 556 0
DWIDTH 18 0
BBX 15 16 2 0
BITMAP
FE1C
FE1E
3C1E
3C0E
7C06
7806
7804
7804
F80C
F008
F018
F030
F030
F8E0
7F80
1F00
ENDCHAR

STARTCHAR w
ENCODING 119
SWIDTH 833 0
DWIDTH 27 0
BBX 24 16 2 0
BITMAP
FF07CE
FF078F
1E078F
3E0787
3E0F03
3C0F03
7C0F03
7C1F02
781E06
783E04
F83E0C
F06E08
F0DE18
F99E30
FF0FE0
7C0780
ENDCHAR

STARTCHAR x
ENCODING 120
SWIDTH 574 0
DWIDTH 19 0
BBX 19 16 0 0
BITMAP
0701C0
0F83E0
1FC7E0
33CDE0
23D880
03F000
01E000
01F000
00F000
00F000
01F800
617840
F37880
FE7F80
FC3F00
781C00
ENDCHAR

STARTCHAR y
ENCODING 121
SWIDTH 519 0
DWIDTH 17 0
BBX 19 22 -2 -6
BITMAP
0380C0
07C1E0
0FC1E0
19E1E0
11E0C0
00F0C0
00F180
00F180
00F100
007B00
007E00
007E00
007C00
007800
003800
003000
006000
60C000
F18000
F30000
FE0000
780000
ENDCHAR

STARTCHAR z
ENCODING 122
SWIDTH 519 0
DWIDTH 17 0
BBX 17 16 0 0
BITMAP
07E080
0FFF80
1FFF00
307300
200E00
001C00
007000
01E000
078000
0E0000
180100
37C300
7FFE00
FFFE00
C7FC00
C0F000
ENDCHAR

STARTCHAR braceleft
ENCODING 123
SWIDTH 407 0
DWIDTH 13 0
BBX 15 30 2 -6
BITMAP
003E
00F0
01E0
01C0
03C0
03C0
03C0
07C0
07C0
07C0
0780
0700
0E00
1C00
7000
7000
1C00
1C00
1E00
1E00
3E00
3C00
7C00
7C00
F800
F000
F000
7000
7000
1C00
ENDCHAR

STARTCHAR bar
ENCODING 124
SWIDTH 606 0
DWIDTH 20 0
BBX 3 30 10 -6
BITMAP
E0
E0
E0
E0
E0
E0
E0
E0
E0
E0
E0
E0
E0
E0
E0
E0
E0
E0
E0
E0
E0
E0
E0
E0
E0
E0
E0
E0
E0
E0
ENDCHAR

STARTCHAR braceright
ENCODING 125
SWIDTH 407 0
DWIDTH 13 0
BBX 14 30 -1 -6
BITMAP
00F0
0038
003C
003C
007C
007C
00F8
00F8
01F0
01F0
01E0
01E0
00E0
0060
0008
0070
00C0
0380
0780
0780
0F80
0F80
0F80
0F00
0F00
0F00
0E00
1C00
3800
E000
ENDCHAR

STARTCHAR asciitilde
ENCODING 126
SWIDTH 606 0
DWIDTH 20 0
BBX 18 6 3 8
BITMAP
3C00C0
7F8080
FFE180
C3FF80
80FF00
801E00
ENDCHAR

STARTCHAR space
ENCODING 160
SWIDTH 287 0
DWIDTH 11 0
BBX 0 0 0 0
BITMAP
ENDCHAR

STARTCHAR exclamdown
ENCODING 161
SWIDTH 333 0
DWIDTH 11 0
BBX 11 25 0 -6
BITMAP
0180
03C0
07E0
07E0
03C0
0180
0000
0000
0300
0200
0600
0600
0E00
0E00
1C00
1C00
3C00
3C00
7C00
7C00
FC00
F800
F800
F800
7000
ENDCHAR

STARTCHAR cent
ENCODING 162
SWIDTH 574 0
DWIDTH 19 0
BBX 18 31 2 -6
BITMAP
0000C0
000180
000180
000100
000300
000200
000600
000400
000C00
03F800
0F9C00
1F1E00
3E3E00
3C3E00
7C7C00
784000
F8C000
F88000
F98000
F90000
FB0400
7E0C00
7E3800
3FF000
0F8000
080000
180000
100000
300000
200000
600000
ENDCHAR

STARTCHAR sterling
ENCODING 163
SWIDTH 574 0
DWIDTH 19 0
BBX 20 24 -1 0
BITMAP
001F00
007FC0
00F060
01E0F0
03E1F0
03C1F0
03C1F0
03C0E0
03C000
03C000
03C000
3FFE00
3FFE00
03C000
01C000
01C000
01C000
39C000
7F8080
C7C1C0
83FF80
C7FF00
FEFE00
387C00
ENDCHAR

STARTCHAR currency
ENCODING 164
SWIDTH 574 0
DWIDTH 19 0
BBX 17 17 2 2
BITMAP
200200
F3E700
7FFF80
3FFF00
3C1E00
380E00
700700
700700
700700
700700
700700
380E00
3C1E00
7FFF00
FFFF80
63E300
200100
ENDCHAR

STARTCHAR yen
ENCODING 165
SWIDTH 574 0
DWIDTH 19 0
BBX 21 22 0 0
BITMAP
3FE3F8
0F81E0
0780C0
078080
07C180
03C300
03C300
03E600
01E400
01E800
7FFFE0
7EFFE0
01F000
01F000
01E000
FFFFC0
FFFFC0
03E000
03C000
03C000
07E000
3FF800
ENDCHAR

STARTCHAR brokenbar
ENCODING 166
SWIDTH 606 0
DWIDTH 20 0
BBX 3 30 10 -6
BITMAP
E0
E0
E0
E0
E0
E0
E0
E0
E0
E0
E0
00
00
00
00
00
00
00
00
E0
E0
E0
E0
E0
E0
E0
E0
E0
E0
E0
ENDCHAR

STARTCHAR section
ENCODING 167
SWIDTH 500 0
DWIDTH 17 0
BBX 17 30 0 -6
BITMAP
003C00
00FF00
01C780
038780
038780
03C780
03C000
03E000
01E000
03F000
06F800
1CFC00
187C00
383E00
3C1E00
3C1E00
3E0E00
1F0E00
1F1C00
0F9800
07F000
07E000
03E000
01E000
61E000
F0E000
F0E000
F1E000
73C000
3F0000
ENDCHAR

STARTCHAR dieresis
ENCODING 168
SWIDTH 333 0
DWIDTH 11 0
BBX 10 4 4 19
BITMAP
E1C0
F3C0
F3C0
E1C0
ENDCHAR

STARTCHAR copyright
ENCODING 169
SWIDTH 747 0
DWIDTH 25 0
BBX 23 24 2 0
BITMAP
007C00
03FF80
0701C0
1C0070
380038
307C98
61C38C
438084
C78086
C70006
8F0002
8F0002
8F0002
8F0002
C70006
C78006
438084
61C30C
307C18
300038
1C0070
0701C0
03FF80
007C00
ENDCHAR

STARTCHAR ordfeminine
ENCODING 170
SWIDTH 412 0
DWIDTH 14 0
BBX 12 10 4 14
BITMAP
1F60
39E0
71C0
F1C0
E1C0
E1C0
E3B0
E7E0
7DC0
1180
ENDCHAR

STARTCHAR guillemotleft
ENCODING 171
SWIDTH 481 0
DWIDTH 16 0
BBX 16 14 0 2
BITMAP
0183
0306
070E
0E1C
1E3C
3C78
FDF8
78F0
78F0
3C78
1C38
1C38
0C18
0C18
ENDCHAR

STARTCHAR logicalnot
ENCODING 172
SWIDTH 606 0
DWIDTH 20 0
BBX 18 11 2 6
BITMAP
FFFFC0
FFFFC0
FFFFC0
0001C0
0001C0
0001C0
0001C0
0001C0
0001C0
0001C0
0001C0
ENDCHAR

STARTCHAR hyphen
ENCODING 173
SWIDTH 333 0
DWIDTH 11 0
BBX 11 3 0 6
BITMAP
7FE0
FFE0
FFC0
ENDCHAR

STARTCHAR registered
ENCODING 174
SWIDTH 747 0
DWIDTH 25 0
BBX 23 24 2 0
BITMAP
007C00
03FF80
0700E0
1C0070
380018
37FE08
61C78C
41C384
C1C386
C1C382
81C782
81EF02
81DE02
81CE02
C1CF06
C1C706
41C784
63E38C
37F3C8
180018
1C0070
0701C0
03FF80
007C00
ENDCHAR

STARTCHAR macron
ENCODING 175
SWIDTH 333 0
DWIDTH 11 0
BBX 12 3 3 19
BITMAP
FFF0
FFE0
FFE0
ENDCHAR

STARTCHAR degree
ENCODING 176
SWIDTH 400 0
DWIDTH 13 0
BBX 11 11 3 12
BITMAP
1F00
7FC0
71C0
E0E0
C060
C060
C060
E0E0
71C0
7FC0
1F00
ENDCHAR

STARTCHAR plusminus
ENCODING 177
SWIDTH 606 0
DWIDTH 20 0
BBX 18 24 3 0
BITMAP
01C000
01C000
01C000
01C000
01C000
01C000
01C000
01C000
FFFFC0
FFFFC0
FFFFC0
01C000
01C000
01C000
01C000
01C000
01C000
01C000
000000
000000
000000
FFFFC0
FFFFC0
FFFFC0
ENDCHAR

STARTCHAR twosuperior
ENCODING 178
SWIDTH 344 0
DWIDTH 11 0
BBX 10 12 2 11
BITMAP
0F00
19C0
39C0
39C0
1DC0
0380
0700
0C00
1080
7F80
FF00
FF00
ENDCHAR

STARTCHAR threesuperior
ENCODING 179
SWIDTH 344 0
DWIDTH 11 0
BBX 9 12 3 11
BITMAP
1F00
3380
3B80
3B80
0300
3C00
0600
6700
E700
E700
CE00
3C00
ENDCHAR

STARTCHAR acute
ENCODING 180
SWIDTH 333 0
DWIDTH 11 0
BBX 7 6 6 18
BITMAP
0C
1E
3E
7C
F0
C0
ENDCHAR

STARTCHAR mu
ENCODING 181
SWIDTH 685 0
DWIDTH 23 0
BBX 19 22 0 -7
BITMAP
01E1E0
03C1E0
03C1E0
03C3C0
07C3C0
0783C0
0787C0
078780
0F0780
0F0F80
0F0F00
1F1720
1F2F20
1FEF40
378780
300000
700000
600000
E00000
E00000
E00000
E00000
ENDCHAR

STARTCHAR paragraph
ENCODING 182
SWIDTH 650 0
DWIDTH 21 0
BBX 19 29 3 -5
BITMAP
07FFE0
1FE300
3FE300
7FE300
7FE300
7FE300
FFE300
FFE300
FFE300
7FE300
7FE300
7FE300
3FE300
1FE300
07E300
006300
006300
006300
006300
006300
006300
006300
006300
006300
006300
006300
006300
006300
006300
ENDCHAR

STARTCHAR periodcentered
ENCODING 183
SWIDTH 287 0
DWIDTH 9 0
BBX 5 5 3 11
BITMAP
70
F8
F8
F8
70
ENDCHAR

STARTCHAR cedilla
ENCODING 184
SWIDTH 333 0
DWIDTH 11 0
BBX 9 6 -1 -6
BITMAP
0700
1F80
0F80
0F80
1F00
FC00
ENDCHAR

STARTCHAR onesuperior
ENCODING 185
SWIDTH 344 0
DWIDTH 11 0
BBX 7 12 4 11
BITMAP
02
3E
1E
0C
1C
1C
1C
38
38
38
38
FC
ENDCHAR

STARTCHAR ordmasculine
ENCODING 186
SWIDTH 356 0
DWIDTH 12 0
BBX 11 9 3 15
BITMAP
0F80
38C0
70E0
F0E0
E0E0
E1E0
E1C0
6380
3F00
ENDCHAR

STARTCHAR guillemotright
ENCODING 187
SWIDTH 481 0
DWIDTH 16 0
BBX 16 14 0 2
BITMAP
1030
1830
1C38
1C38
1E3C
1E3E
1F1F
1F3E
3E3C
3C78
7870
70E0
E0C0
C180
ENDCHAR

STARTCHAR onequarter
ENCODING 188
SWIDTH 861 0
DWIDTH 28 0
BBX 21 24 5 0
BITMAP
030000
3E0030
0E0060
0E0040
1C00C0
1C0180
1C0100
1C0200
380600
380C00
380800
FE1800
003018
002038
004078
00C0F0
0081B0
010370
030660
060CE0
040FF8
0C00E0
1800C0
3003F0
ENDCHAR

STARTCHAR onehalf
ENCODING 189
SWIDTH 861 0
DWIDTH 28 0
BBX 22 24 5 0
BITMAP
030000
3E0030
0E0040
0E00C0
0C0080
1C0100
1C0300
1C0600
380400
380800
381800
FE1000
0020F0
00619C
00C39C
00839C
0181DC
030038
020070
0400C0
0C0108
1807F8
100FF0
300FF0
ENDCHAR

STARTCHAR threequarters
ENCODING 190
SWIDTH 861 0
DWIDTH 28 0
BBX 22 23 4 0
BITMAP
1F0000
338018
3B8030
3B8060
030040
3C0080
060180
670300
E70200
E70400
CE0C00
3C1804
00100C
00301C
006038
0040D8
0081B8
018330
030670
0207F8
040070
0C00E0
1801F8
ENDCHAR

STARTCHAR questiondown
ENCODING 191
SWIDTH 481 0
DWIDTH 16 0
BBX 14 25 1 -6
BITMAP
0030
0078
00FC
00FC
0078
0030
0000
01C0
07E0
0C70
0470
0070
01F0
07E0
1FC0
3F80
7F00
FC00
F800
F020
E060
E060
70C0
3F80
0E00
ENDCHAR

STARTCHAR Agrave
ENCODING 192
SWIDTH 741 0
DWIDTH 24 0
BBX 25 33 -1 0
BITMAP
00008000
0003C000
0003E000
0003E000
0000F000
00003800
00000000
00000000
00000000
0000E000
0000E000
0001E000
0003E000
0003E000
0007E000
000EF000
000DF000
0019F000
0019F000
0031F000
0061F000
0061F000
00C0F800
0180F800
01FFF800
03FFF800
0700F800
0600F800
0C00F800
0C007800
1C007C00
7E00FE00
FF87FF80
ENDCHAR

STARTCHAR Aacute
ENCODING 193
SWIDTH 741 0
DWIDTH 24 0
BBX 25 33 -1 0
BITMAP
00000800
00003C00
00003C00
00007C00
0000F000
0001C000
00000000
00000000
00000000
0000E000
0000E000
0001E000
0003E000
0003E000
0007E000
000EF000
000DF000
0019F000
0019F000
0031F000
0061F000
0061F000
00C0F800
0180F800
01FFF800
03FFF800
0700F800
0600F800
0C00F800
0C007800
1C007C00
7E00FE00
FF87FF80
ENDCHAR

STARTCHAR Acircumflex
ENCODING 194
SWIDTH 741 0
DWIDTH 24 0
BBX 25 33 -1 0
BITMAP
00007800
0000F800
0001F800
0003D800
00070C00
001C0400
00000000
00000000
00000000
0000E000
0000E000
0001E000
0003E000
0003E000
0007E000
000EF000
000DF000
0019F000
0019F000
0031F000
0061F000
0061F000
00C0F800
0180F800
01FFF800
03FFF800
0700F800
0600F800
0C00F800
0C007800
1C007C00
7E00FE00
FF87FF80
ENDCHAR

STARTCHAR Atilde
ENCODING 195
SWIDTH 741 0
DWIDTH 24 0
BBX 25 31 -1 0
BITMAP
0003C200
0007FE00
000FFC00
00083800
00000000
00000000
00000000
0000E000
0000E000
0001E000
0003E000
0003E000
0007E000
000EF000
000DF000
0019F000
0019F000
0031F000
0061F000
0061F000
00C0F800
0180F800
01FFF800
03FFF800
0700F800
0600F800
0C00F800
0C007800
1C007C00
7E00FE00
FF87FF80
ENDCHAR

STARTCHAR Adieresis
ENCODING 196
SWIDTH 741 0
DWIDTH 24 0
BBX 25 31 -1 0
BITMAP
00070E00
00079E00
00079E00
00030C00
00000000
00000000
00000000
00006000
0000E000
0001E000
0001E000
0003E000
0007F000
0006F000
000DF000
000DF000
0018F000
0038F000
0030F000
0060F800
00E0F800
00C0F800
01FFF800
01FFF800
03007800
06007800
06007800
0C007C00
1C007C00
3E00FE00
FF83FF80
ENDCHAR

STARTCHAR Aring
ENCODING 197
SWIDTH 741 0
DWIDTH 24 0
BBX 25 33 -1 0
BITMAP
00006000
0001F800
00019800
00010800
00019800
0001F800
00006000
00000000
00000000
00006000
0000E000
0001E000
0001E000
0003F000
0007F000
0006F000
000DF000
000DF000
0019F000
0030F000
0030F000
0060F800
00E0F800
00C0F800
01FFF800
03FFF800
03007800
06007800
06007C00
0C007C00
1C007C00
7E00FE00
FF83FF80
ENDCHAR

STARTCHAR AE
ENCODING 198
SWIDTH 889 0
DWIDTH 29 0
BBX 32 24 -4 0
BITMAP
0007FFFF
0000EF0F
0000EF03
0000DF03
00019E03
0003BE03
00033E03
00063C33
000C7C20
000C7C60
00187CE0
00307FE0
0070FBC0
0060F8C0
00FFF8C0
01FFF0C0
0181F082
0381F006
0701E006
0603E00E
0C03E01C
1C03E03C
3C07E0FC
FF1FFFFC
ENDCHAR

STARTCHAR Ccedilla
ENCODING 199
SWIDTH 759 0
DWIDTH 25 0
BBX 23 30 3 -6
BITMAP
003F00
01FFC6
03E06C
0F803C
1F003C
1F001C
3E0018
3E0018
7C0018
7C0018
FC0000
FC0000
F80000
F80000
F80000
F80000
F80020
F80030
7C0060
7C00C0
3E01C0
1F0380
0FFE00
03F800
00E000
03F000
01F000
01F000
03E000
1F8000
ENDCHAR

STARTCHAR Egrave
ENCODING 200
SWIDTH 741 0
DWIDTH 24 0
BBX 25 33 0 0
BITMAP
00030000
00078000
0007C000
0003E000
0000E000
00001000
00000000
00000000
00000000
07FFFF80
00FC0F80
00F80780
00F80380
00F80300
00F80300
01F00300
01F06300
01F06000
03E0C000
03E3C000
03FFC000
03E7C000
07C18000
07C18000
07C18000
07C18600
0F810600
0F800C00
0F800C00
1F801C00
1F007800
3F81F800
FFFFF800
ENDCHAR

STARTCHAR Eacute
ENCODING 201
SWIDTH 741 0
DWIDTH 24 0
BBX 25 33 0 0
BITMAP
00003800
00007800
0000F800
0000F000
0001C000
00030000
00000000
00000000
00000000
07FFFF80
00FC0F80
00F80780
00F80380
00F80300
00F80300
01F00300
01F06300
01F06000
03E0C000
03E3C000
03FFC000
03E7C000
07C18000
07C18000
07C18000
07C18600
0F810600
0F800C00
0F800C00
1F801C00
1F007800
3F81F800
FFFFF800
ENDCHAR

STARTCHAR Ecircumflex
ENCODING 202
SWIDTH 741 0
DWIDTH 24 0
BBX 25 33 0 0
BITMAP
0000F000
0001F000
0003F000
00073800
000C1800
00300800
00000000
00000000
00000000
07FFFF80
00FC0F80
00F80780
00F80380
00F80300
00F80300
01F00300
01F06300
01F06000
03E0C000
03E3C000
03FFC000
03E7C000
07C18000
07C18000
07C18000
07C18600
0F810600
0F800C00
0F800C00
1F801C00
1F007800
3F81F800
FFFFF800
ENDCHAR

STARTCHAR Edieresis
ENCODING 203
SWIDTH 741 0
DWIDTH 24 0
BBX 25 32 0 0
BITMAP
000E1C00
000F3C00
000F3C00
000E1C00
00000000
00000000
00000000
00000000
07FFFF80
00FC0F80
007C0780
00F80300
00F80300
00F80300
00F80300
01F06200
01F06000
01F0C000
01F3C000
03FFC000
03E3C000
03E18000
07E18000
07C18000
07C18600
07C10400
0FC00C00
0F800C00
0F801C00
0F807800
1F81F800
FFFFF800
ENDCHAR

STARTCHAR Igrave
ENCODING 204
SWIDTH 444 0
DWIDTH 15 0
BBX 17 33 0 0
BITMAP
00E000
01F000
00F000
007800
001C00
000600
000000
000000
000000
07FF80
00FC00
00F800
00F800
00F800
00F800
01F000
01F000
01F000
01F000
03E000
03E000
03E000
07E000
07C000
07C000
07C000
0FC000
0F8000
0F8000
0F8000
1F0000
1F8000
FFF000
ENDCHAR

STARTCHAR Iacute
ENCODING 205
SWIDTH 444 0
DWIDTH 15 0
BBX 17 33 0 0
BITMAP
000600
001F00
001F00
003E00
007000
004000
000000
000000
000000
07FF80
00FC00
00F800
00F800
00F800
00F800
01F000
01F000
01F000
01F000
03E000
03E000
03E000
07E000
07C000
07C000
07C000
0FC000
0F8000
0F8000
0F8000
1F0000
1F8000
FFF000
ENDCHAR

STARTCHAR Icircumflex
ENCODING 206
SWIDTH 444 0
DWIDTH 15 0
BBX 17 33 0 0
BITMAP
000F00
001F00
003F80
007180
00C180
030080
000000
000000
000000
07FF80
00FC00
00F800
00F800
00F800
00F800
01F000
01F000
01F000
01F000
03E000
03E000
03E000
07E000
07C000
07C000
07C000
0FC000
0F8000
0F8000
0F8000
1F0000
1F8000
FFF000
ENDCHAR

STARTCHAR Idieresis
ENCODING 207
SWIDTH 444 0
DWIDTH 15 0
BBX 18 32 0 0
BITMAP
00E1C0
00F3C0
00F3C0
00E1C0
000000
000000
000000
000000
07FF80
00FC00
00F800
00F800
00F800
00F000
01F000
01F000
01F000
01E000
03E000
03E000
03E000
03E000
07C000
07C000
07C000
07C000
0F8000
0F8000
0F8000
1F8000
1F8000
FFF000
ENDCHAR

STARTCHAR Gbreve
ENCODING 208
SWIDTH 815 0
DWIDTH 27 0
BBX 24 32 3 0
BITMAP
003010
003030
0038E0
003FE0
001FC0
000F00
000000
000000
001F80
00FFE2
01F03A
07C01E
0F800E
1F800E
3F000C
3E000C
7E000C
7E0000
FC0000
FC0000
FC0000
F803FF
F800FC
F800F8
F800F8
F800F8
FC01F0
7C01F0
3E03B0
1F0770
0FFC60
01F020
ENDCHAR

STARTCHAR Ntilde
ENCODING 209
SWIDTH 852 0
DWIDTH 28 0
BBX 30 32 0 0
BITMAP
0000F080
0001FF80
0003FF00
00021E00
00000000
00000000
00000000
00000000
03FC07FC
00FC01F0
007E00E0
007E00C0
007F00C0
00DF00C0
00DF80C0
00CF8180
00CF8180
0187C180
0187C100
0183E300
0103E300
0301F300
0301F200
0301FE00
0600FE00
0600FE00
06007C00
06007C00
0E003C00
1F003C00
7FC01800
FFC01800
ENDCHAR

STARTCHAR Ograve
ENCODING 210
SWIDTH 833 0
DWIDTH 27 0
BBX 25 32 2 0
BITMAP
00030000
00078000
0007C000
0003E000
0000E000
00003000
00000000
00000000
000FC000
007FF800
01F03C00
07C01E00
0F801F00
1F800F00
1F000F80
3E000F80
7E000F80
7E000F80
FC001F80
FC001F80
FC001F80
FC001F80
F8003F00
F8003F00
F8003E00
F8007E00
7800FC00
7C00F800
3C01F000
1E07C000
0FFF0000
01F80000
ENDCHAR

STARTCHAR Oacute
ENCODING 211
SWIDTH 833 0
DWIDTH 27 0
BBX 25 32 2 0
BITMAP
00003000
00007800
0000F800
0000F000
0001C000
00030000
00000000
00000000
000FC000
007FF800
01F03C00
07C01E00
0F801F00
1F800F00
1F000F80
3E000F80
7E000F80
7E000F80
FC001F80
FC001F80
FC001F80
FC001F80
F8003F00
F8003F00
F8003E00
F8007E00
7800FC00
7C00F800
3C01F000
1E07C000
0FFF0000
01F80000
ENDCHAR

STARTCHAR Ocircumflex
ENCODING 212
SWIDTH 833 0
DWIDTH 27 0
BBX 25 32 2 0
BITMAP
0000F000
0001F000
0003F000
00073000
000C1800
00300800
00000000
00000000
000FC000
007FF800
01F03C00
07C01E00
0F801F00
1F800F00
1F000F80
3E000F80
7E000F80
7E000F80
FC001F80
FC001F80
FC001F80
FC001F80
F8003F00
F8003F00
F8003E00
F8007E00
7800FC00
7C00F800
3C01F000
1E07C000
0FFF0000
01F80000
ENDCHAR

STARTCHAR Otilde
ENCODING 213
SWIDTH 833 0
DWIDTH 27 0
BBX 25 31 2 0
BITMAP
00078400
000FFC00
000FF800
00107000
00000000
00000000
00000000
000FC000
007FF800
01F03C00
07C01E00
0F801F00
1F800F00
1F000F80
3E000F80
7E000F80
7E000F80
FC001F80
FC001F80
FC001F80
FC001F80
F8003F00
F8003F00
F8003E00
F8007E00
7800FC00
7C00F800
3C01F000
1E07C000
0FFF0000
01F80000
ENDCHAR

STARTCHAR Odieresis
ENCODING 214
SWIDTH 833 0
DWIDTH 27 0
BBX 25 31 2 0
BITMAP
000E3C00
001E3C00
001E3C00
000E3C00
00000000
00000000
00000000
000FC000
007FF000
01E03C00
07C01E00
0F801F00
1F000F00
1F000F80
3E000F80
7E000F80
7C000F80
FC001F80
FC001F80
FC001F80
F8003F80
F8003F00
F8003F00
F8007E00
F8007C00
7800FC00
7C01F800
3C03F000
1E07C000
0FFF0000
01F80000
ENDCHAR

STARTCHAR multiply
ENCODING 215
SWIDTH 650 0
DWIDTH 21 0
BBX 17 17 4 3
BITMAP
200100
600300
F00780
780F00
3C1E00
1E3C00
0F7800
07F000
03C000
03E000
07F000
0F7800
1E3C00
3C1E00
780F00
F00780
600300
ENDCHAR

STARTCHAR Oslash
ENCODING 216
SWIDTH 833 0
DWIDTH 27 0
BBX 25 24 2 0
BITMAP
000FC380
007FFB00
01F03E00
07E01F00
0FC01F00
1F803780
1F006F80
3F00CF80
7E018F80
7E030F80
7E061F80
FC0C1F80
FC181F80
FC301F00
FC203F00
F8403F00
F8807E00
F9007C00
7A00FC00
7C00F800
3C01F000
3E07C000
6FFF0000
C1F80000
ENDCHAR

STARTCHAR Ugrave
ENCODING 217
SWIDTH 833 0
DWIDTH 27 0
BBX 26 33 4 0
BITMAP
00060000
000F0000
000F8000
00078000
0001C000
00006000
00000000
00000000
00000000
FFF87FC0
1FC01F00
0F800E00
1F800C00
1F000C00
1F000800
1F001800
3E001800
3E001800
3E001000
3E003000
7C003000
7C003000
7C002000
FC006000
F8006000
F8006000
F8004000
F800C000
F8018000
7C038000
3E070000
1FFC0000
07F00000
ENDCHAR

STARTCHAR Uacute
ENCODING 218
SWIDTH 833 0
DWIDTH 27 0
BBX 26 33 4 0
BITMAP
00006000
0000F000
0001F000
0003E000
00038000
00060000
00000000
00000000
00000000
FFF87FC0
1FC01F00
0F800E00
1F800C00
1F000C00
1F000800
1F001800
3E001800
3E001800
3E001000
3E003000
7C003000
7C003000
7C002000
FC006000
F8006000
F8006000
F8004000
F800C000
F8018000
7C038000
3E070000
1FFC0000
07F00000
ENDCHAR

STARTCHAR Ucircumflex
ENCODING 219
SWIDTH 833 0
DWIDTH 27 0
BBX 26 33 4 0
BITMAP
0003E000
0007E000
000FE000
001E6000
00382000
00601000
00000000
00000000
00000000
FFF87FC0
1FC01F00
0F800E00
1F800C00
1F000C00
1F000800
1F001800
3E001800
3E001800
3E001000
3E003000
7C003000
7C003000
7C002000
FC006000
F8006000
F8006000
F8004000
F800C000
F8018000
7C038000
3E070000
1FFC0000
07F00000
ENDCHAR

STARTCHAR Udieresis
ENCODING 220
SWIDTH 833 0
DWIDTH 27 0
BBX 26 32 4 0
BITMAP
001C7800
003C7800
003C7800
001C7800
00000000
00000000
00000000
00000000
FFF07FC0
1F801F00
0F800E00
1F000C00
1F000C00
1F000C00
1F000800
3E001800
3E001800
3E001800
7C001000
7C003000
7C003000
7C003000
F8006000
F8006000
F8006000
F8006000
F800C000
F801C000
7C038000
3E070000
1FFC0000
07F00000
ENDCHAR

STARTCHAR Idotaccent
ENCODING 221
SWIDTH 444 0
DWIDTH 15 0
BBX 17 32 0 0
BITMAP
001E00
001E00
001E00
001E00
000000
000000
000000
000000
07FF80
00FC00
007C00
00F800
00F800
00F800
00F800
01F000
01F000
01F000
01F000
03E000
03E000
03E000
07C000
07C000
07C000
07C000
0F8000
0F8000
0F8000
0F8000
1F8000
FFF000
ENDCHAR

STARTCHAR Scedilla
ENCODING 222
SWIDTH 685 0
DWIDTH 23 0
BBX 22 30 1 -6
BITMAP
00FF00
01C1CC
0380FC
070078
070038
0F0038
0F0018
0F8010
0FE010
07FC00
07FF00
03FFC0
00FFE0
003FF0
3007F0
3003F0
3001F0
3000F0
7000F0
7801E0
7C01C0
6E0780
C7FF00
007800
00F000
01F800
00F800
00F800
03F000
0FC000
ENDCHAR

STARTCHAR germandbls
ENCODING 223
SWIDTH 574 0
DWIDTH 19 0
BBX 23 31 -3 -7
BITMAP
0007F0
001E3C
003C1C
007C1E
00781E
00F81E
00F03E
01F03C
01E078
01E170
03E780
03E7C0
03C0E0
03C070
07C078
078078
078078
0780F8
0F80F8
0F38F8
0F79F0
1F79E0
1F63E0
1E3F80
1E0E00
3E0000
3C0000
7C0000
7C0000
F80000
800000
ENDCHAR

STARTCHAR agrave
ENCODING 224
SWIDTH 667 0
DWIDTH 22 0
BBX 19 24 2 0
BITMAP
007000
00F800
007C00
003C00
000F00
000200
000000
000000
03E3C0
07F780
1F1B80
3E0F80
3C0F00
7C0F00
7C0F00
781F00
F81E00
F81E00
F81E60
F83C40
787CC0
7CDD80
3FBF00
1E1C00
ENDCHAR

STARTCHAR aacute
ENCODING 225
SWIDTH 667 0
DWIDTH 22 0
BBX 19 24 2 0
BITMAP
000700
000F80
000F00
001E00
003800
002000
000000
000000
03E3C0
07F780
1F1B80
3E0F80
3C0F00
7C0F00
7C0F00
781F00
F81E00
F81E00
F81E60
F83C40
787CC0
7CDD80
3FBF00
1E1C00
ENDCHAR

STARTCHAR acircumflex
ENCODING 226
SWIDTH 667 0
DWIDTH 22 0
BBX 19 24 2 0
BITMAP
001E00
003E00
007F00
00F300
018100
060100
000000
000000
01E3C0
07F780
1F1B80
1E0F80
3C0F00
7C0F00
7C0F00
781F00
F81E00
F81E00
F81E60
F83C40
787CC0
7CDD80
3FBF00
1E1C00
ENDCHAR

STARTCHAR atilde
ENCODING 227
SWIDTH 667 0
DWIDTH 22 0
BBX 19 23 2 0
BITMAP
007040
00FF80
01FF80
010F00
000000
000000
000000
03E3C0
07F780
1F1B80
3E0F80
3C0F00
7C0F00
7C0F00
781F00
F81E00
F81E00
F81E60
F83C40
787CC0
7CDD80
3FBF00
1E1C00
ENDCHAR

STARTCHAR adieresis
ENCODING 228
SWIDTH 667 0
DWIDTH 22 0
BBX 18 23 2 0
BITMAP
01C380
01E780
01E780
00C380
000000
000000
000000
03E780
07F780
1F1F80
1E0F00
3C0F00
7C0F00
7C0E00
781E00
F81E00
F81E00
F83C40
F83CC0
787C80
7CDF80
3FBF00
1F1C00
ENDCHAR

STARTCHAR aring
ENCODING 229
SWIDTH 667 0
DWIDTH 22 0
BBX 19 24 2 0
BITMAP
001800
007E00
006600
004200
006600
003E00
001800
000000
01E380
07F780
0F1780
1E0F00
3C0F00
7C0F00
7C0F00
781E00
F81E00
F81E00
F83C60
F83CC0
787C80
7CDF80
3FBF00
1E1C00
ENDCHAR

STARTCHAR ae
ENCODING 230
SWIDTH 815 0
DWIDTH 27 0
BBX 26 16 0 0
BITMAP
01E3CF00
07FBBF80
0F9BE3C0
1F0FC3C0
3E0F83C0
3C0F87C0
7C0F0F80
780F1E00
F80FF800
F81F8000
F81F0000
F83F0080
782F0180
7C6F8700
3FC7FC00
0F01F000
ENDCHAR

STARTCHAR ccedilla
ENCODING 231
SWIDTH 537 0
DWIDTH 18 0
BBX 15 22 2 -6
BITMAP
03F8
0F8C
1E0E
3E3E
3C3E
7C1C
7800
F800
F800
F800
F800
F804
F80C
7C38
3FE0
0B80
0700
1F80
0F80
0F80
3F00
FC00
ENDCHAR

STARTCHAR egrave
ENCODING 232
SWIDTH 519 0
DWIDTH 17 0
BBX 15 24 1 0
BITMAP
0080
01C0
01E0
01F0
0078
001C
0000
0000
00F8
03FC
0F1E
1E1E
3C1E
7C3E
7C7C
78F8
FFC0
FC00
F800
F804
780C
7C38
3FF0
0F80
ENDCHAR

STARTCHAR eacute
ENCODING 233
SWIDTH 519 0
DWIDTH 17 0
BBX 15 24 1 0
BITMAP
0008
001E
003E
007C
0070
00C0
0000
0000
00F8
03FC
0F1E
1E1E
3C1E
7C3E
7C7C
78F8
FFC0
FC00
F800
F804
780C
7C38
3FF0
0F80
ENDCHAR

STARTCHAR ecircumflex
ENCODING 234
SWIDTH 519 0
DWIDTH 17 0
BBX 15 24 1 0
BITMAP
0078
00F8
01FC
03DC
070C
0C06
0000
0000
00F8
03FC
0F1E
1E1E
3C1E
7C3E
7C7C
78F8
FFC0
FC00
F800
F804
780C
7C38
3FF0
0F80
ENDCHAR

STARTCHAR edieresis
ENCODING 235
SWIDTH 519 0
DWIDTH 17 0
BBX 16 23 1 0
BITMAP
078F
078F
078F
078F
0000
0000
0000
00F8
03FC
0F1E
1E1E
3C1E
7C3E
7C7C
78F8
FFC0
FC00
F800
F804
780C
7C38
3FF0
0F80
ENDCHAR

STARTCHAR igrave
ENCODING 236
SWIDTH 389 0
DWIDTH 13 0
BBX 10 24 3 0
BITMAP
0C00
1E00
1F00
0F80
0380
0040
0000
0000
3E00
FE00
3E00
3C00
3C00
3C00
7800
7800
7800
F800
F180
F100
F300
FE00
FC00
F800
ENDCHAR

STARTCHAR iacute
ENCODING 237
SWIDTH 389 0
DWIDTH 13 0
BBX 11 24 3 0
BITMAP
00E0
01E0
03E0
03C0
0700
0C00
0000
0000
3E00
FE00
3E00
3C00
3C00
3C00
7800
7800
7800
F800
F180
F100
F300
FE00
FC00
F800
ENDCHAR

STARTCHAR icircumflex
ENCODING 238
SWIDTH 389 0
DWIDTH 13 0
BBX 11 24 3 0
BITMAP
03C0
07C0
0FC0
1CC0
3060
C020
0000
0000
3E00
FE00
3E00
3C00
3C00
3C00
7800
7800
7800
F800
F180
F100
F300
FE00
FC00
F800
ENDCHAR

STARTCHAR idieresis
ENCODING 239
SWIDTH 389 0
DWIDTH 13 0
BBX 12 23 3 0
BITMAP
3C70
3CF0
3CF0
3870
0000
0000
0000
3E00
FE00
3E00
1E00
3C00
3C00
3C00
7C00
7800
7800
7980
F100
F300
F600
FC00
7800
ENDCHAR

STARTCHAR gbreve
ENCODING 240
SWIDTH 611 0
DWIDTH 20 0
BBX 22 30 -1 -6
BITMAP
006020
006060
0071C0
007FC0
003F80
001F00
000000
000078
007FFC
01E3D8
03C1E0
0781E0
0781E0
0781E0
0783E0
0783C0
01C780
07FF00
1C0000
1C0000
3FF800
3FFF00
1FFF80
0FFFC0
3C07C0
F803C0
F00380
F80780
7C1F00
1FF800
ENDCHAR

STARTCHAR ntilde
ENCODING 241
SWIDTH 685 0
DWIDTH 23 0
BBX 20 23 1 0
BITMAP
007820
00FFC0
00FFC0
008780
000000
000000
000000
3F8F80
7FBFC0
0F77C0
0F43C0
0F83C0
1F87C0
1F0780
1E0F80
1E0F80
3E0F00
3C0F30
3C1F20
7C1E60
781EC0
781F80
F80F00
ENDCHAR

STARTCHAR ograve
ENCODING 242
SWIDTH 574 0
DWIDTH 19 0
BBX 16 24 1 0
BITMAP
00C0
01E0
01F0
00F8
0038
000C
0000
0000
03F0
0F1C
1E0E
3C0F
7C0F
780F
F80F
F81F
F81F
F01F
F01E
F03E
703C
7878
3CF0
0FC0
ENDCHAR

STARTCHAR oacute
ENCODING 243
SWIDTH 574 0
DWIDTH 19 0
BBX 16 24 1 0
BITMAP
000C
001E
003E
007C
0070
00C0
0000
0000
03F0
0F1C
1E0E
3C0F
7C0F
780F
F80F
F81F
F81F
F01F
F01E
F03E
703C
7878
3CF0
0FC0
ENDCHAR

STARTCHAR ocircumflex
ENCODING 244
SWIDTH 574 0
DWIDTH 19 0
BBX 16 24 1 0
BITMAP
0038
007C
00FC
01CC
0304
0C02
0000
0000
03F0
0F1C
1E0E
3C0F
7C0F
780F
F80F
F81F
F81F
F01F
F01E
F03E
703C
7878
3CF0
0FC0
ENDCHAR

STARTCHAR otilde
ENCODING 245
SWIDTH 574 0
DWIDTH 19 0
BBX 16 23 1 0
BITMAP
01E1
03FF
07FE
041C
0000
0000
0000
03F0
0F1C
1E0E
3C0F
7C0F
780F
F80F
F81F
F81F
F01F
F01E
F03E
703C
7878
3CF0
0FC0
ENDCHAR

STARTCHAR odieresis
ENCODING 246
SWIDTH 574 0
DWIDTH 19 0
BBX 16 23 2 0
BITMAP
038F
078F
078F
038F
0000
0000
0000
03F0
0F1C
1E1E
3C0F
7C0F
780F
F80F
F81F
F01F
F01F
F03E
F03E
707C
7078
39F0
1FC0
ENDCHAR

STARTCHAR divide
ENCODING 247
SWIDTH 650 0
DWIDTH 21 0
BBX 18 17 3 3
BITMAP
00C000
01E000
01E000
00C000
000000
000000
000000
FFFFC0
FFFFC0
FFFFC0
000000
000000
000000
00C000
01E000
01E000
00C000
ENDCHAR

STARTCHAR oslash
ENCODING 248
SWIDTH 574 0
DWIDTH 19 0
BBX 17 16 1 0
BITMAP
03F980
0F9F00
1E0F00
3E0F00
7C1F80
7C3780
786F80
F8CF80
F98F80
FB1F00
FE1F00
FC1E00
783E00
387C00
7CF800
CFE000
ENDCHAR

STARTCHAR ugrave
ENCODING 249
SWIDTH 685 0
DWIDTH 23 0
BBX 19 24 2 0
BITMAP
007000
00F800
007C00
001C00
000700
000000
000000
000000
FF03C0
FE07C0
1E0780
3E0780
3C0F80
3C0F00
7C0F00
781F00
781E00
F83E00
F03E20
F07C40
F0DCC0
FBBD80
FF3F00
7C1E00
ENDCHAR

STARTCHAR uacute
ENCODING 250
SWIDTH 685 0
DWIDTH 23 0
BBX 19 24 2 0
BITMAP
000700
000F80
001F00
001C00
003000
000000
000000
000000
FF03C0
FE07C0
1E0780
3E0780
3C0F80
3C0F00
7C0F00
781F00
781E00
F83E00
F03E20
F07C40
F0DCC0
FBBD80
FF3F00
7C1E00
ENDCHAR

STARTCHAR ucircumflex
ENCODING 251
SWIDTH 685 0
DWIDTH 23 0
BBX 19 24 2 0
BITMAP
001E00
003E00
007F00
00E300
018100
060100
000000
000000
FF03C0
FE07C0
1E0780
3E0780
3C0F80
3C0F00
7C0F00
781F00
781E00
F83E00
F03E20
F05C40
F0DCC0
FBBD80
FF3F00
7C1E00
ENDCHAR

STARTCHAR udieresis
ENCODING 252
SWIDTH 685 0
DWIDTH 23 0
BBX 19 23 2 0
BITMAP
01E780
01E780
01E780
00C300
000000
000000
000000
FF03C0
FE07C0
1E0780
3E0780
3C0F80
3C0F00
7C0F00
781F00
781E00
F83E00
F03E20
F05C40
F0DCC0
FBBD80
FF3F00
7C1E00
ENDCHAR

STARTCHAR dotlessi
ENCODING 253
SWIDTH 389 0
DWIDTH 13 0
BBX 9 16 3 0
BITMAP
3F00
FE00
3E00
1E00
3E00
3C00
3C00
7C00
7800
7800
7880
F180
F300
F600
FC00
7800
ENDCHAR

STARTCHAR scedilla
ENCODING 254
SWIDTH 481 0
DWIDTH 16 0
BBX 15 22 0 -6
BITMAP
03F8
0F0C
1E1E
3C1E
3C1E
3F00
3FC0
1FF0
0FF8
03FC
707C
F03C
F03C
6078
70F0
1FE0
0380
0FC0
07C0
07C0
1F80
7E00
ENDCHAR

STARTCHAR ydieresis
ENCODING 255
SWIDTH 519 0
DWIDTH 17 0
BBX 19 29 -2 -6
BITMAP
01E380
01E7C0
01E7C0
01C380
000000
000000
000000
0380E0
07C1E0
0FC1E0
19E0E0
11E0E0
00F0C0
00F1C0
00F180
007180
007B00
007B00
007E00
007C00
003C00
003800
003000
006000
60C000
F18000
F30000
FE0000
380000
ENDCHAR
ENDFONT
